<?xml version="1.0" encoding="utf-8"?>
<!-- Generator: Adobe Illustrator 19.2.1, SVG Export Plug-In . SVG Version: 6.00 Build 0)  -->
<svg version="1.1" id="Слой_1" xmlns="http://www.w3.org/2000/svg" xmlns:xlink="http://www.w3.org/1999/xlink" x="0px" y="0px"
	 viewBox="0 0 362 362" style="enable-background:new 0 0 362 362;" xml:space="preserve">
<style type="text/css">
	.st0{fill:#7A7A7A;}
</style>
<path class="st0" d="M213.5,181c0,4.2-1.3,8.5-3.6,11.7L103.5,352.4c-3.9,5.8-10.2,9.6-17.7,9.6H21.9c-11.7,0-21.3-9.6-21.3-21.3
	c0-4.2,1.3-8.5,3.6-11.7l98.6-148L4.2,33c-2.3-3.2-3.6-7.4-3.6-11.7C0.6,9.6,10.2,0,21.9,0l63.9,0c7.5,0,13.9,3.8,17.7,9.6
	l106.4,159.7C212.3,172.5,213.6,176.7,213.5,181z"/>
</svg>
