<?xml version="1.0" encoding="utf-8"?>
<!-- Generator: Adobe Illustrator 19.2.1, SVG Export Plug-In . SVG Version: 6.00 Build 0)  -->
<svg version="1.1" id="Слой_1" xmlns="http://www.w3.org/2000/svg" xmlns:xlink="http://www.w3.org/1999/xlink" x="0px" y="0px"
	 viewBox="0 0 362 362" style="enable-background:new 0 0 362 362;" xml:space="preserve">
<style type="text/css">
	.st0{fill:#7A7A7A;}
</style>
<path class="st0" d="M4.2,169.3L110.6,9.6c3.8-5.8,10.2-9.6,17.7-9.6l63.9,0c11.7,0,21.3,9.6,21.3,21.3c0,4.3-1.3,8.5-3.6,11.7
	l-98.6,148l98.6,148c2.3,3.2,3.6,7.5,3.6,11.7c0,11.7-9.6,21.3-21.3,21.3h-63.9c-7.5,0-13.8-3.8-17.7-9.6L4.2,192.7
	c-2.3-3.2-3.6-7.5-3.6-11.7C0.5,176.7,1.8,172.5,4.2,169.3z"/>
</svg>
