<?xml version="1.0" encoding="utf-8"?>
<!-- Generator: Adobe Illustrator 19.2.1, SVG Export Plug-In . SVG Version: 6.00 Build 0)  -->
<svg version="1.1" id="Слой_1" xmlns="http://www.w3.org/2000/svg" xmlns:xlink="http://www.w3.org/1999/xlink" x="0px" y="0px"
	 viewBox="0 0 119.7 77.7" style="enable-background:new 0 0 119.7 77.7;" xml:space="preserve">
<g>
	<defs>
		<polygon id="SVGID_1_" points="33.9,35.6 22.5,35.6 57.8,12.1 96.9,35.6 78.5,35.6 78.5,50 83.5,50 83.5,40.6 114.8,40.6 
			57.7,6.1 6,40.6 33.9,40.6 		"/>
	</defs>
	<use xlink:href="#SVGID_1_"  style="overflow:visible;fill:#545454;"/>
	<clipPath id="SVGID_2_">
		<use xlink:href="#SVGID_1_"  style="overflow:visible;"/>
	</clipPath>
</g>
<g>
	<defs>
		<path id="SVGID_3_" d="M44.1,40.2v10.1h7.4l0.9-6.8h7.4l2.6,9h0.9l1.3-9h8.3l0.9,8.6h14.8v5.7H76.7v10.6h2.2h10.5V74
			c0,0-11,0-12.6,0c-1.6,0-2.8,0.4-4.8-0.9c-2-1.2-1.7-3.5-1.7-3.5v-4.8l-1.7-10.2h-0.9l-1.3,10.2l-5.7-0.1L58,54.7h-0.9l-0.9,10.1
			h-6.5L51,56h-8.7c0,0-1.8,0-3.5-1.3c-1.7-1.3-1.7-3.5-1.7-3.5V38.8c0.1-0.7-0.1-0.5,1.3-2.6c1.1-1.6,3.5-1.8,3.5-1.8h14.4v5.7"/>
	</defs>
	<use xlink:href="#SVGID_3_"  style="overflow:visible;fill-rule:evenodd;clip-rule:evenodd;fill:#2C2C2C;"/>
	<clipPath id="SVGID_4_">
		<use xlink:href="#SVGID_3_"  style="overflow:visible;"/>
	</clipPath>
</g>
</svg>
